<?xml version="1.0" encoding="utf-8"?>
<!-- Generator: Adobe Illustrator 16.0.0, SVG Export Plug-In . SVG Version: 6.00 Build 0)  -->
<!DOCTYPE svg PUBLIC "-//W3C//DTD SVG 1.1//EN" "http://www.w3.org/Graphics/SVG/1.1/DTD/svg11.dtd">
<svg version="1.1" xmlns="http://www.w3.org/2000/svg" xmlns:xlink="http://www.w3.org/1999/xlink" x="0px" y="0px" width="64px"
	 height="64px" viewBox="0 0 64 64" enable-background="new 0 0 64 64" xml:space="preserve">
<g id="_x32_5_website_x2C__structure_x2C__page_x2C__interface_x2C__website_x2C__window_x2C__program">
</g>
<g id="_x32_4_social_x2C__network_x2C__page_x2C__interface_x2C__website_x2C__window">
</g>
<g id="_x32_3_code_x2C__optimization_x2C__programming_x2C__develop_x2C__developer_x2C__program">
</g>
<g id="_x32_2_clean_x2C__code_x2C__programming_x2C__develop_x2C__developer_x2C__program">
</g>
<g id="_x32_1_map_x2C__service_x2C__search_x2C__interface_x2C__window_x2C__page_x2C__website">
</g>
<g id="_x32_0_player_x2C__program_x2C___album_x2C__music_x2C__interface_x2C__window">
</g>
<g id="_x31_9_online_x2C__training_x2C__page_x2C__interface_x2C__website_x2C__window_x2C__book_x2C__bookmark">
</g>
<g id="_x31_8_landing_x2C__page_x2C__interface_x2C__website_x2C__window_x2C__web_x2C__laptop">
</g>
<g id="_x31_7_search_x2C__system_x2C__page_x2C__interface_x2C__website_x2C__window_x2C__web">
</g>
<g id="_x31_6_antivirus_x2C__program_x2C__shield_x2C__interface_x2C__window_x2C__protection">
</g>
<g id="_x31_5_photo_x2C__retouching_x2C__program_x2C__interface_x2C__design_x2C__monitor">
</g>
<g id="_x31_4_messenger_x2C__chat_x2C__talk_x2C__page_x2C__interface_x2C__website_x2C__window">
</g>
<g id="_x31_3_online_x2C__shop_x2C__market_x2C__store_x2C__website_x2C__web_x2C__interface">
</g>
<g id="_x31_2_video_x2C__web_x2C__page_x2C__interface_x2C__website_x2C__player_x2C__window">
</g>
<g id="_x31_1_computer_x2C__game_x2C__interface_x2C__video_x2C__computer_x2C__monitor_x2C__window">
</g>
<g id="_x31_0_vector_x2C__graphics_x2C__program_x2C__interface_x2C__design_x2C__illustration_x2C__monitor">
</g>
<g id="_x39__website_x2C__programming_x2C__develop_x2C__developer_x2C__web_x2C__page_x2C__interface_1_">
</g>
<g id="_x38__programming_x2C__window_x2C__program_x2C__monitor_x2C__computer_x2C__develop_x2C__developer">
</g>
<g id="_x37__responsive_x2C__monitor_x2C__website_x2C__phone_x2C__interface_x2C__page_x2C__design">
	<g>
		<g>
			<rect x="3.5" y="8.246" fill="#E6E9ED" width="57" height="30.99"/>
		</g>
		<g>
			<rect x="3.5" y="6.236" fill="#CCD1D9" width="57" height="2.01"/>
		</g>
		<g>
			<rect x="6.5" y="11.246" fill="#A0D468" width="51" height="8"/>
		</g>
		<g>
			<circle fill="#CCD1D9" cx="32" cy="45.736" r="1.5"/>
		</g>
		<g>
			<path fill="#CCD1D9" d="M63.5,46.256v1.98c0,1.689-1.311,3-3,3c-0.71,0-10.63,0-22.01,0c-4.26,0-8.721,0-12.98,0
				c-11.38,0-21.3,0-22.01,0c-1.689,0-3-1.311-3-3v-1.98c0,1.65,1.35,3,3,3H32h28.5C62.15,49.256,63.5,47.906,63.5,46.256z"/>
		</g>
		<g>
			<path fill="#CCD1D9" d="M38.49,51.236l2,9H23.51l2-9C29.77,51.236,34.23,51.236,38.49,51.236z"/>
		</g>
		<g opacity="0.1">
			<g>
				<path d="M60.318,49.256H60.5c1.65,0,3-1.35,3-3v1.98c0,1.689-1.311,3-3,3c-0.217,0-1.295,0-3,0
					C58.828,51.236,59.91,50.422,60.318,49.256z"/>
			</g>
		</g>
		<path fill="#E6E9ED" d="M32,42.236H0.5v4v0.02c0,1.65,1.35,3,3,3H32h28.5c1.65,0,3-1.35,3-3v-4.02H32z M32,47.236
			c-0.83,0-1.5-0.67-1.5-1.5s0.67-1.5,1.5-1.5s1.5,0.67,1.5,1.5S32.83,47.236,32,47.236z"/>
		<g>
			<path fill="#434A54" d="M63.5,6.256v35.98H32H0.5V6.256c0-1.648,1.35-3,3-3h57C62.15,3.256,63.5,4.607,63.5,6.256z M60.5,39.236
				v-31v-2h-2h-2h-3h-2h-2h-2h-2h-22h-4h-4h-4h-4h-4v2v31H60.5z"/>
		</g>
		<path fill="#AAB2BD" d="M38.712,52.236l-0.222-1c-4.26,0-8.721,0-12.98,0l-0.222,1H38.712z"/>
		<g>
			<path fill="#5D9CEC" d="M11.5,25.246c-1.109,0-2,0.891-2,2s0.891,2,2,2s2-0.891,2-2S12.609,25.246,11.5,25.246z M6.5,22.246h24
				v14h-1l-6.5-10l-4.529,6.961L16.5,30.256l-4,5.99h-6V22.246z"/>
		</g>
		<g>
			<path fill="#FFCE54" d="M11.5,25.246c1.109,0,2,0.891,2,2s-0.891,2-2,2s-2-0.891-2-2S10.391,25.246,11.5,25.246z"/>
		</g>
		<g>
			<polygon fill="#F5F7FA" points="18.471,33.207 16.5,36.246 12.5,36.246 16.5,30.256 			"/>
		</g>
		<g>
			<polygon fill="#FFFFFF" points="23,26.246 29.5,36.246 16.5,36.246 18.471,33.207 			"/>
		</g>
		<g opacity="0.2">
			<rect x="60.5" y="34.246" width="1" height="6"/>
		</g>
		<g>
			<path fill="#E6E9ED" d="M5.006,7.746c-0.276,0-0.505-0.223-0.505-0.5c0-0.275,0.219-0.5,0.494-0.5h0.011
				c0.275,0,0.5,0.225,0.5,0.5C5.506,7.523,5.281,7.746,5.006,7.746z"/>
		</g>
		<g>
			<path fill="#E6E9ED" d="M7.006,7.746c-0.276,0-0.505-0.223-0.505-0.5c0-0.275,0.219-0.5,0.494-0.5h0.011
				c0.275,0,0.5,0.225,0.5,0.5C7.506,7.523,7.281,7.746,7.006,7.746z"/>
		</g>
		<g>
			<path fill="#E6E9ED" d="M9.006,7.746c-0.276,0-0.505-0.223-0.505-0.5c0-0.275,0.219-0.5,0.494-0.5h0.011
				c0.275,0,0.5,0.225,0.5,0.5C9.506,7.523,9.281,7.746,9.006,7.746z"/>
		</g>
		<g>
			<path fill="#E6E9ED" d="M42,60.727H22c-0.276,0-0.5-0.223-0.5-0.5c0-0.275,0.224-0.5,0.5-0.5h20c0.276,0,0.5,0.238,0.5,0.516
				C42.5,60.518,42.276,60.727,42,60.727z"/>
		</g>
		<g>
			<path fill="#CCD1D9" d="M43.486,26.746H33.5c-0.276,0-0.5-0.223-0.5-0.5c0-0.275,0.224-0.5,0.5-0.5h9.986
				c0.276,0,0.5,0.225,0.5,0.5C43.986,26.523,43.763,26.746,43.486,26.746z"/>
		</g>
		<g>
			<path fill="#CCD1D9" d="M57.5,23.746h-24c-0.276,0-0.5-0.223-0.5-0.5c0-0.275,0.224-0.5,0.5-0.5h24c0.276,0,0.5,0.225,0.5,0.5
				C58,23.523,57.776,23.746,57.5,23.746z"/>
		</g>
		<g>
			<path fill="#CCD1D9" d="M43.498,29.746H33.5c-0.276,0-0.5-0.223-0.5-0.5c0-0.275,0.224-0.5,0.5-0.5h9.998
				c0.276,0,0.5,0.225,0.5,0.5C43.998,29.523,43.774,29.746,43.498,29.746z"/>
		</g>
		<g>
			<path fill="#CCD1D9" d="M43.499,32.746H33.5c-0.276,0-0.5-0.223-0.5-0.5c0-0.275,0.224-0.5,0.5-0.5h9.999
				c0.276,0,0.5,0.225,0.5,0.5C43.999,32.523,43.775,32.746,43.499,32.746z"/>
		</g>
		<g>
			<path fill="#CCD1D9" d="M43.499,35.746H33.5c-0.276,0-0.5-0.223-0.5-0.5c0-0.275,0.224-0.5,0.5-0.5h9.999
				c0.276,0,0.5,0.225,0.5,0.5C43.999,35.523,43.775,35.746,43.499,35.746z"/>
		</g>
		<g>
			<path fill="#8CC152" d="M51.498,15.746H12.502c-0.276,0-0.5-0.223-0.5-0.5c0-0.275,0.224-0.5,0.5-0.5h38.996
				c0.276,0,0.5,0.225,0.5,0.5C51.998,15.523,51.774,15.746,51.498,15.746z"/>
		</g>
		<g>
			<g>
				<path fill="#434A54" d="M60,60.744H49c-1.919,0-3.488-1.561-3.5-3.479V33.227c0-1.93,1.57-5.502,3.5-5.502h11
					c1.93,0,3.5,3.572,3.5,5.502v24.018C63.478,59.193,61.907,60.744,60,60.744z"/>
			</g>
			<g>
				<path fill="#E6E9ED" d="M49,26.223h11c1.65,0,3,1.35,3,3v26.02c0,0.01,0,0.029,0,0.039c-0.02,1.631-1.359,2.961-3,2.961H49
					c-1.641,0-2.99-1.34-3-2.98c0-0.01,0-0.01,0-0.02v-26.02C46,27.572,47.35,26.223,49,26.223z M55.529,56.262c0-0.551-0.449-1-1-1
					c-0.549,0-1,0.449-1,1c0,0.549,0.451,1,1,1C55.08,57.262,55.529,56.811,55.529,56.262z"/>
			</g>
			<g>
				<polygon fill="#F5F7FA" points="54,45.227 55.471,47.455 55,48.246 52,48.246 				"/>
			</g>
			<g>
				<polygon fill="#FFFFFF" points="58,43.227 61,48.246 55,48.246 55.471,47.455 				"/>
			</g>
			<g>
				<path fill="#5D9CEC" d="M54,45.227l-2,3.02h-4v-8.002h13v8.002l-3-5.02l-2.529,4.229L54,45.227z"/>
			</g>
			<g>
				<rect x="48" y="32.244" fill="#A0D468" width="13" height="6"/>
			</g>
			<path fill="#656D78" d="M63.5,30.242v-1V29.24c-0.012-1.918-1.581-3.479-3.5-3.479H49c-1.9,0-3.465,1.541-3.498,3.48H45.5v1H63.5
				z"/>
			<g>
				<path fill="#656D78" d="M60,58.742H49c-1.919,0-3.488-1.561-3.5-3.479V29.223c0-1.93,1.57-3.5,3.5-3.5h11
					c1.93,0,3.5,1.57,3.5,3.5v26.02C63.478,57.191,61.907,58.742,60,58.742z M49,26.723c-1.379,0-2.5,1.121-2.5,2.5v26.02
					c0.008,1.385,1.13,2.5,2.5,2.5h11c1.362,0,2.483-1.107,2.5-2.467V29.223c0-1.379-1.121-2.5-2.5-2.5H49z"/>
			</g>
			<g>
				<path fill="#434A54" d="M56,28.742h-3c-0.276,0-0.5-0.223-0.5-0.5c0-0.275,0.224-0.5,0.5-0.5h3c0.276,0,0.5,0.225,0.5,0.5
					C56.5,28.52,56.276,28.742,56,28.742z"/>
			</g>
			<g>
				<path fill="#8CC152" d="M59.029,34.744h-9c-0.276,0-0.5-0.223-0.5-0.5c0-0.275,0.224-0.5,0.5-0.5h9c0.276,0,0.5,0.225,0.5,0.5
					C59.529,34.521,59.306,34.744,59.029,34.744z"/>
			</g>
			<g>
				<path fill="#8CC152" d="M57,36.744h-4.939c-0.276,0-0.5-0.223-0.5-0.5c0-0.275,0.224-0.5,0.5-0.5H57c0.276,0,0.5,0.225,0.5,0.5
					C57.5,36.521,57.276,36.744,57,36.744z"/>
			</g>
			<g>
				<g>
					<path fill="#CCD1D9" d="M60.529,50.746H48.53c-0.276,0-0.5-0.225-0.5-0.5c0-0.277,0.224-0.5,0.5-0.5h11.999
						c0.276,0,0.5,0.223,0.5,0.5C61.029,50.521,60.806,50.746,60.529,50.746z"/>
				</g>
				<g>
					<path fill="#CCD1D9" d="M60.529,52.746H48.53c-0.276,0-0.5-0.225-0.5-0.5c0-0.277,0.224-0.5,0.5-0.5h11.999
						c0.276,0,0.5,0.223,0.5,0.5C61.029,52.521,60.806,52.746,60.529,52.746z"/>
				</g>
			</g>
			<path fill="#656D78" d="M45.5,54.262v1v0.002c0.012,1.918,1.581,3.479,3.5,3.479h11c1.9,0,3.465-1.541,3.498-3.48H63.5v-1H45.5z"
				/>
			<g>
				<path fill="#AAB2BD" d="M54.529,55.262c0.551,0,1,0.449,1,1c0,0.549-0.449,1-1,1c-0.549,0-1-0.451-1-1
					C53.529,55.711,53.98,55.262,54.529,55.262z"/>
			</g>
			<g>
				<path fill="#FFCE54" d="M52.029,43.244c0,0.551-0.449,1-1,1c-0.549,0-1-0.449-1-1c0-0.549,0.451-1,1-1
					C51.58,42.244,52.029,42.695,52.029,43.244z"/>
			</g>
		</g>
	</g>
</g>
<g id="_x36__page_x2C__speed_x2C__stopwatch_x2C__window_x2C__website_x2C__web_x2C__interface">
</g>
<g id="_x35__data_x2C__graph_x2C__analytics_x2C__program_x2C__page_x2C__chat_x2C__interface">
</g>
<g id="_x34__reviews_x2C__chat_x2C__talk_x2C__page_x2C__interface_x2C__web_x2C__website">
</g>
<g id="_x33__analytics_x2C__program_x2C__page_x2C__chat_x2C__graph_x2C__interface_x2C__monitoring">
</g>
<g id="_x32__program_x2C__platform_x2C__window_x2C__website_x2C__web_x2C__crown_x2C__page_x2C__interface">
</g>
<g id="_x31__operating_x2C__system_x2C__monitor_x2C__computer_x2C__folder_x2C__interface_x2C__decktop">
</g>
</svg>
